<?xml version="1.0" encoding="UTF-8"?>
<svg
  class="name w-[91px] h-[14px]"
  viewBox="0 0 512 71"
  fill="#000000"
  fill-rule="evenodd"
>
  <path
    class="dark:fill-white"
    d="M 437.6 69.9 L 449.6 69.9 L 449.6 38.7 C 449.6 32.4 453.7 27.9 459.5 27.9 C 465.1 27.9 468.6 31.5 468.6 37.2 L 468.6 69.9 L 480.3 69.9 L 480.3 38.4 C 480.3 32.2 484.3 27.9 490.1 27.9 C 496 27.9 499.3 31.5 499.3 37.8 L 499.3 69.9 L 511.3 69.9 L 511.3 34.9 C 511.3 24.6 504.7 17.8 494.6 17.8 C 487.2 17.8 481.1 21.8 478.6 28.1 L 478.3 28.1 C 476.4 21.6 471.3 17.8 464.1 17.8 C 457.3 17.8 452.1 21.5 449.9 27.1 L 449.6 27.1 L 449.6 18.9 L 437.6 18.9 Z M 400.2 70.8 C 406.9 70.8 412.6 67.4 415.6 62.1 L 415.9 62.1 L 415.9 69.9 L 427.9 69.9 L 427.9 34.8 C 427.9 24.5 419.7 17.8 406.8 17.8 C 393.8 17.8 385.9 24.6 385.2 33.6 L 385.2 34.2 L 396.3 34.2 L 396.4 33.8 C 397.2 30 400.7 27.4 406.4 27.4 C 412.5 27.4 415.9 30.5 415.9 35.7 L 415.9 39.2 L 402.5 40 C 390 40.8 383 46.2 383 55.3 L 383 55.4 C 383 64.5 389.9 70.8 400.2 70.8 Z M 395 54.9 L 395 54.8 C 395 50.8 398.2 48.2 404.2 47.9 L 415.9 47.1 L 415.9 51 C 415.9 57.1 410.7 61.6 403.7 61.6 C 398.5 61.6 395 59.1 395 54.9 Z M 355.3 70.9 C 368.2 70.9 376.9 62.8 377.8 52.2 L 377.9 51.8 L 366.5 51.8 L 366.4 52.3 C 365.3 57.6 361.4 61.2 355.3 61.2 C 347.7 61.2 342.8 55.1 342.8 44.4 L 342.8 44.4 C 342.8 33.9 347.7 27.5 355.3 27.5 C 361.7 27.5 365.3 31.5 366.3 36.5 L 366.4 36.9 L 377.8 36.9 L 377.8 36.5 C 377 26.3 368.6 17.8 355.1 17.8 C 340.2 17.8 330.5 28 330.5 44.3 L 330.5 44.3 C 330.5 60.7 340 70.9 355.3 70.9 Z M 300.1 70.9 C 315.1 70.9 324.9 61 324.9 44.4 L 324.9 44.3 C 324.9 27.8 315 17.8 300 17.8 C 285.1 17.8 275.3 27.9 275.3 44.3 L 275.3 44.4 C 275.3 60.9 285 70.9 300.1 70.9 Z M 300.1 61.2 C 292.4 61.2 287.5 55.1 287.5 44.4 L 287.5 44.3 C 287.5 33.7 292.5 27.5 300 27.5 C 307.7 27.5 312.6 33.6 312.6 44.3 L 312.6 44.4 C 312.6 55.1 307.7 61.2 300.1 61.2 Z M 264.2 70.9 C 266.6 70.9 268.7 70.7 270.1 70.5 L 270.1 61.5 C 269.3 61.5 268.4 61.7 267.2 61.7 C 262.8 61.7 260.6 60.1 260.6 55.1 L 260.6 28.1 L 270.1 28.1 L 270.1 18.9 L 260.6 18.9 L 260.6 5.9 L 248.4 5.9 L 248.4 18.9 L 241.1 18.9 L 241.1 28.1 L 248.4 28.1 L 248.4 56.1 C 248.4 66.6 253.4 70.9 264.2 70.9 Z M 189.8 69.9 L 201.9 69.9 L 201.9 40.3 C 201.9 32.9 206.3 27.9 213.2 27.9 C 220.1 27.9 223.4 32 223.4 39.3 L 223.4 69.9 L 235.5 69.9 L 235.5 36.9 C 235.5 25 229.1 17.8 217.8 17.8 C 210 17.8 204.8 21.4 202.1 26.9 L 201.9 26.9 L 201.9 18.9 L 189.8 18.9 Z M 157.3 70.9 C 172.3 70.9 182.1 61 182.1 44.4 L 182.1 44.3 C 182.1 27.8 172.2 17.8 157.2 17.8 C 142.3 17.8 132.5 27.9 132.5 44.3 L 132.5 44.4 C 132.5 60.9 142.2 70.9 157.3 70.9 Z M 157.3 61.2 C 149.6 61.2 144.7 55.1 144.7 44.4 L 144.7 44.3 C 144.7 33.7 149.7 27.5 157.2 27.5 C 164.9 27.5 169.8 33.6 169.8 44.3 L 169.8 44.4 C 169.8 55.1 164.9 61.2 157.3 61.2 Z M 51.2 69.9 L 63.3 69.9 L 63.3 38.7 C 63.3 32.4 67.3 27.9 73.1 27.9 C 78.8 27.9 82.2 31.5 82.2 37.2 L 82.2 69.9 L 93.9 69.9 L 93.9 38.4 C 93.9 32.2 97.9 27.9 103.7 27.9 C 109.6 27.9 112.9 31.5 112.9 37.8 L 112.9 69.9 L 125 69.9 L 125 34.9 C 125 24.6 118.3 17.8 108.2 17.8 C 100.8 17.8 94.7 21.8 92.3 28.1 L 92 28.1 C 90.1 21.6 84.9 17.8 77.7 17.8 C 71 17.8 65.7 21.5 63.5 27.1 L 63.3 27.1 L 63.3 18.9 L 51.2 18.9 Z M 0.4 69.9 L 12.4 69.9 L 12.4 52.2 L 16.5 47.9 L 32.7 69.9 L 46.6 69.9 L 25.4 40.8 L 45.8 18.9 L 31.8 18.9 L 12.7 40.1 L 12.4 40.1 L 12.4 0.4 L 0.4 0.4 Z"
  />
</svg>
